<svg xmlns="http://www.w3.org/2000/svg" viewBox="0 0 21.167 21.167" width="80" height="80">
	<defs id="defs3051">
		<style type="text/css" id="current-color-scheme">
			.ColorScheme-Text {
				color:#4d4d4d;
			}
		</style>
	</defs>
	<path
		d="m7.2453 17.331c-0.80706-0.40218-2.2752-1.6292-3.7561-3.1394-2.2984-2.3438-2.4312-2.5408-2.4312-3.6087 0-1.0679 0.13274-1.265 2.4312-3.6087 3.077-3.1376 4.3129-3.7996 7.0938-3.7996s4.0168 0.66197 7.0938 3.7996c2.2984 2.3438 2.4312 2.5408 2.4312 3.6087 0 1.0679-0.13274 1.265-2.4312 3.6087-3.077 3.1376-4.3129 3.7996-7.0938 3.7996-1.6156 0-2.2742-0.13028-3.3377-0.66024zm6.1665-1.869c2.0745-1.2157 3.2765-3.8708 2.718-6.0036-1.0127-3.8668-5.0386-5.7102-8.2984-3.7998-2.1534 1.262-3.365 3.8882-2.7905 6.0487 1.0609 3.9899 4.9744 5.7452 8.371 3.7546zm-4.3235-1.1128c-0.16723-0.10691-0.34582-0.49127-0.39688-0.85414-0.06974-0.49571-0.28937-0.69358-0.88334-0.79579-0.92489-0.15915-1.1778-0.87395-0.55345-1.5639 0.38803-0.42877 0.38152-0.50336-0.0804-0.92139-0.67781-0.61341-0.43316-1.431 0.45912-1.5343 0.53932-0.0624 0.71966-0.24575 0.78316-0.79609 0.10599-0.91855 0.95819-1.2225 1.6563-0.59079 0.48553 0.4394 0.53532 0.439 1.0295-8e-3 0.61337-0.55509 1.3328-0.36765 1.3328 0.34726 0 0.58275 0.43478 1 1.1876 1.1397 0.67803 0.12585 0.8296 0.92581 0.28867 1.5235-0.38833 0.4291-0.38026 0.5045 0.10059 0.93966 0.67267 0.60875 0.28688 1.4648-0.66011 1.4648-0.54236 0-0.65215 0.12843-0.65215 0.76289 0 0.92232-0.74943 1.2231-1.5866 0.63672-0.50108-0.35097-0.61353-0.34778-1.0301 0.0292-0.52947 0.47916-0.5747 0.4892-0.99463 0.22073zm2.2779-3.0921c0.38383-0.46248 0.14729-1.3588-0.41558-1.5748-0.56801-0.21796-1.426 0.29769-1.426 0.85705 0 0.99525 1.2174 1.4698 1.8415 0.71776z"
		style="fill:currentColor"
		class="ColorScheme-Text"
	/>
</svg>
